<svg width="20" height="20" viewBox="0 0 20 20" fill="none" xmlns="http://www.w3.org/2000/svg">
<mask id="mask0_1_11939" style="mask-type:alpha" maskUnits="userSpaceOnUse" x="0" y="0" width="20" height="20">
<rect width="20" height="20" fill="#D9D9D9"/>
</mask>
<g mask="url(#mask0_1_11939)">
<path d="M10.0001 0.833496L17.5417 5.3335C17.7917 5.48627 17.9862 5.69461 18.1251 5.9585C18.264 6.22238 18.3334 6.50016 18.3334 6.79183V15.8335C18.3334 16.2918 18.1702 16.6842 17.8438 17.0106C17.5174 17.337 17.1251 17.5002 16.6667 17.5002H3.33341C2.87508 17.5002 2.48272 17.337 2.15633 17.0106C1.82994 16.6842 1.66675 16.2918 1.66675 15.8335V6.79183C1.66675 6.50016 1.73619 6.22238 1.87508 5.9585C2.01397 5.69461 2.20841 5.48627 2.45841 5.3335L10.0001 0.833496ZM10.0001 10.5418L16.5001 6.66683L10.0001 2.79183L3.50008 6.66683L10.0001 10.5418ZM10.0001 12.5002L3.33341 8.50016V15.8335H16.6667V8.50016L10.0001 12.5002Z" fill="#1C1B1F" fill-opacity="0.5"/>
</g>
</svg>
