<svg width="20" height="20" viewBox="0 0 20 20" fill="none" xmlns="http://www.w3.org/2000/svg">
<mask id="mask0_1_11941" style="mask-type:alpha" maskUnits="userSpaceOnUse" x="0" y="0" width="20" height="20">
<rect width="20" height="20" fill="#D9D9D9"/>
</mask>
<g mask="url(#mask0_1_11941)">
<path d="M4.87508 14.2498C5.58342 13.7082 6.37508 13.2811 7.25008 12.9686C8.12508 12.6561 9.04175 12.4998 10.0001 12.4998C10.9584 12.4998 11.8751 12.6561 12.7501 12.9686C13.6251 13.2811 14.4167 13.7082 15.1251 14.2498C15.6112 13.6804 15.9897 13.0346 16.2605 12.3123C16.5313 11.5901 16.6667 10.8193 16.6667 9.99984C16.6667 8.15262 16.0174 6.5797 14.7188 5.28109C13.4202 3.98248 11.8473 3.33317 10.0001 3.33317C8.15286 3.33317 6.57994 3.98248 5.28133 5.28109C3.98272 6.5797 3.33341 8.15262 3.33341 9.99984C3.33341 10.8193 3.46883 11.5901 3.73966 12.3123C4.0105 13.0346 4.38897 13.6804 4.87508 14.2498ZM10.0001 10.8332C9.18064 10.8332 8.48967 10.5519 7.92717 9.98942C7.36467 9.42692 7.08342 8.73595 7.08342 7.9165C7.08342 7.09706 7.36467 6.40609 7.92717 5.84359C8.48967 5.28109 9.18064 4.99984 10.0001 4.99984C10.8195 4.99984 11.5105 5.28109 12.073 5.84359C12.6355 6.40609 12.9167 7.09706 12.9167 7.9165C12.9167 8.73595 12.6355 9.42692 12.073 9.98942C11.5105 10.5519 10.8195 10.8332 10.0001 10.8332ZM10.0001 18.3332C8.8473 18.3332 7.76397 18.1144 6.75008 17.6769C5.73619 17.2394 4.85425 16.6457 4.10425 15.8957C3.35425 15.1457 2.7605 14.2637 2.323 13.2498C1.8855 12.2359 1.66675 11.1526 1.66675 9.99984C1.66675 8.84706 1.8855 7.76373 2.323 6.74984C2.7605 5.73595 3.35425 4.854 4.10425 4.104C4.85425 3.354 5.73619 2.76025 6.75008 2.32275C7.76397 1.88525 8.8473 1.6665 10.0001 1.6665C11.1529 1.6665 12.2362 1.88525 13.2501 2.32275C14.264 2.76025 15.1459 3.354 15.8959 4.104C16.6459 4.854 17.2397 5.73595 17.6772 6.74984C18.1147 7.76373 18.3334 8.84706 18.3334 9.99984C18.3334 11.1526 18.1147 12.2359 17.6772 13.2498C17.2397 14.2637 16.6459 15.1457 15.8959 15.8957C15.1459 16.6457 14.264 17.2394 13.2501 17.6769C12.2362 18.1144 11.1529 18.3332 10.0001 18.3332ZM10.0001 16.6665C10.7362 16.6665 11.4306 16.5589 12.0834 16.3436C12.7362 16.1283 13.3334 15.8193 13.8751 15.4165C13.3334 15.0137 12.7362 14.7047 12.0834 14.4894C11.4306 14.2741 10.7362 14.1665 10.0001 14.1665C9.26397 14.1665 8.56953 14.2741 7.91675 14.4894C7.26397 14.7047 6.66675 15.0137 6.12508 15.4165C6.66675 15.8193 7.26397 16.1283 7.91675 16.3436C8.56953 16.5589 9.26397 16.6665 10.0001 16.6665ZM10.0001 9.1665C10.3612 9.1665 10.6598 9.04845 10.8959 8.81234C11.132 8.57623 11.2501 8.27762 11.2501 7.9165C11.2501 7.55539 11.132 7.25678 10.8959 7.02067C10.6598 6.78456 10.3612 6.6665 10.0001 6.6665C9.63897 6.6665 9.34036 6.78456 9.10425 7.02067C8.86814 7.25678 8.75008 7.55539 8.75008 7.9165C8.75008 8.27762 8.86814 8.57623 9.10425 8.81234C9.34036 9.04845 9.63897 9.1665 10.0001 9.1665Z" fill="#1C1B1F" fill-opacity="0.5"/>
</g>
</svg>
