<svg width="20" height="20" viewBox="0 0 20 20" fill="none" xmlns="http://www.w3.org/2000/svg">
<mask id="mask0_1_11937" style="mask-type:alpha" maskUnits="userSpaceOnUse" x="0" y="0" width="20" height="20">
<rect width="20" height="20" fill="#D9D9D9"/>
</mask>
<g mask="url(#mask0_1_11937)">
<path d="M9.99992 13.3335C11.0416 13.3335 11.927 12.9689 12.6562 12.2397C13.3853 11.5106 13.7499 10.6252 13.7499 9.5835C13.7499 8.54183 13.3853 7.65641 12.6562 6.92725C11.927 6.19808 11.0416 5.8335 9.99992 5.8335C8.95825 5.8335 8.07283 6.19808 7.34367 6.92725C6.6145 7.65641 6.24992 8.54183 6.24992 9.5835C6.24992 10.6252 6.6145 11.5106 7.34367 12.2397C8.07283 12.9689 8.95825 13.3335 9.99992 13.3335ZM9.99992 11.8335C9.37492 11.8335 8.84367 11.6147 8.40617 11.1772C7.96867 10.7397 7.74992 10.2085 7.74992 9.5835C7.74992 8.9585 7.96867 8.42725 8.40617 7.98975C8.84367 7.55225 9.37492 7.3335 9.99992 7.3335C10.6249 7.3335 11.1562 7.55225 11.5937 7.98975C12.0312 8.42725 12.2499 8.9585 12.2499 9.5835C12.2499 10.2085 12.0312 10.7397 11.5937 11.1772C11.1562 11.6147 10.6249 11.8335 9.99992 11.8335ZM9.99992 15.8335C7.97214 15.8335 6.12492 15.2675 4.45825 14.1356C2.79158 13.0036 1.58325 11.4863 0.833252 9.5835C1.58325 7.68072 2.79158 6.16336 4.45825 5.03141C6.12492 3.89947 7.97214 3.3335 9.99992 3.3335C12.0277 3.3335 13.8749 3.89947 15.5416 5.03141C17.2083 6.16336 18.4166 7.68072 19.1666 9.5835C18.4166 11.4863 17.2083 13.0036 15.5416 14.1356C13.8749 15.2675 12.0277 15.8335 9.99992 15.8335ZM9.99992 14.1668C11.5694 14.1668 13.0103 13.7536 14.3228 12.9272C15.6353 12.1009 16.6388 10.9863 17.3333 9.5835C16.6388 8.18072 15.6353 7.06613 14.3228 6.23975C13.0103 5.41336 11.5694 5.00016 9.99992 5.00016C8.43047 5.00016 6.9895 5.41336 5.677 6.23975C4.3645 7.06613 3.36103 8.18072 2.66659 9.5835C3.36103 10.9863 4.3645 12.1009 5.677 12.9272C6.9895 13.7536 8.43047 14.1668 9.99992 14.1668Z" fill="#1C1B1F" fill-opacity="0.5"/>
</g>
</svg>
