<svg width="20" height="21" viewBox="0 0 20 21" fill="none" xmlns="http://www.w3.org/2000/svg">
<path d="M10 5.56022C10 6.00225 10.1756 6.42617 10.4882 6.73873C10.8007 7.05129 11.2246 7.22689 11.6667 7.22689C12.1087 7.22689 12.5326 7.05129 12.8452 6.73873C13.1577 6.42617 13.3333 6.00225 13.3333 5.56022C13.3333 5.11819 13.1577 4.69427 12.8452 4.38171C12.5326 4.06915 12.1087 3.89355 11.6667 3.89355C11.2246 3.89355 10.8007 4.06915 10.4882 4.38171C10.1756 4.69427 10 5.11819 10 5.56022Z" stroke="#5E35B1" stroke-width="1.25" stroke-linecap="round" stroke-linejoin="round"/>
<path d="M3.33325 5.56055H9.99992" stroke="#5E35B1" stroke-width="1.25" stroke-linecap="round" stroke-linejoin="round"/>
<path d="M13.3333 5.56055H16.6666" stroke="#5E35B1" stroke-width="1.25" stroke-linecap="round" stroke-linejoin="round"/>
<path d="M5 10.5602C5 11.0022 5.17559 11.4262 5.48816 11.7387C5.80072 12.0513 6.22464 12.2269 6.66667 12.2269C7.10869 12.2269 7.53262 12.0513 7.84518 11.7387C8.15774 11.4262 8.33333 11.0022 8.33333 10.5602C8.33333 10.1182 8.15774 9.69427 7.84518 9.38171C7.53262 9.06915 7.10869 8.89355 6.66667 8.89355C6.22464 8.89355 5.80072 9.06915 5.48816 9.38171C5.17559 9.69427 5 10.1182 5 10.5602Z" stroke="#5E35B1" stroke-width="1.25" stroke-linecap="round" stroke-linejoin="round"/>
<path d="M3.33325 10.5605H4.99992" stroke="#5E35B1" stroke-width="1.25" stroke-linecap="round" stroke-linejoin="round"/>
<path d="M8.33325 10.5605H16.6666" stroke="#5E35B1" stroke-width="1.25" stroke-linecap="round" stroke-linejoin="round"/>
<path d="M12.5 15.5602C12.5 16.0022 12.6756 16.4262 12.9882 16.7387C13.3007 17.0513 13.7246 17.2269 14.1667 17.2269C14.6087 17.2269 15.0326 17.0513 15.3452 16.7387C15.6577 16.4262 15.8333 16.0022 15.8333 15.5602C15.8333 15.1182 15.6577 14.6943 15.3452 14.3817C15.0326 14.0691 14.6087 13.8936 14.1667 13.8936C13.7246 13.8936 13.3007 14.0691 12.9882 14.3817C12.6756 14.6943 12.5 15.1182 12.5 15.5602Z" stroke="#5E35B1" stroke-width="1.25" stroke-linecap="round" stroke-linejoin="round"/>
<path d="M3.33325 15.5605H12.4999" stroke="#5E35B1" stroke-width="1.25" stroke-linecap="round" stroke-linejoin="round"/>
<path d="M15.8333 15.5605H16.6666" stroke="#5E35B1" stroke-width="1.25" stroke-linecap="round" stroke-linejoin="round"/>
</svg>
