<svg width="24" height="24" viewBox="0 0 24 24" fill="none" xmlns="http://www.w3.org/2000/svg">
<path opacity="0.3" d="M6.44009 9.86023L7.02009 5.00023H5.05009L4.04009 9.36023C3.94009 9.78023 4.03009 10.2002 4.29009 10.5302C4.43009 10.7102 4.73009 11.0002 5.23009 11.0002C5.84009 11.0002 6.36009 10.5102 6.44009 9.86023ZM9.71009 11.0002C10.4501 11.0002 11.0001 10.4102 11.0001 9.69023V5.00023H9.04009L8.49009 9.52024C8.44009 9.91023 8.56009 10.3002 8.82009 10.5902C9.05009 10.8502 9.37009 11.0002 9.71009 11.0002ZM14.2201 11.0002C14.6301 11.0002 14.9401 10.8502 15.1801 10.5902C15.4301 10.3002 15.5501 9.91023 15.5101 9.52024L14.9601 5.00023H13.0001V9.69023C13.0001 10.4102 13.5501 11.0002 14.2201 11.0002ZM18.9101 4.99023L16.9801 5.00023L17.5601 9.86023C17.6401 10.5102 18.1601 11.0002 18.7701 11.0002C19.2601 11.0002 19.5701 10.7102 19.7001 10.5302C19.9601 10.2002 20.0501 9.77023 19.9501 9.36023L18.9101 4.99023Z" fill="#FFC107"/>
<path d="M21.9 8.89L20.85 4.52C20.63 3.62 19.85 3 18.94 3H5.05001C4.15001 3 3.36001 3.63 3.15001 4.52L2.10001 8.89C1.86001 9.91 2.08001 10.95 2.72001 11.77C2.80001 11.88 2.91001 11.96 3.00001 12.06V19C3.00001 20.1 3.90001 21 5.00001 21H19C20.1 21 21 20.1 21 19V12.06C21.09 11.97 21.2 11.88 21.28 11.78C21.92 10.96 22.15 9.91 21.9 8.89ZM13 5H14.96L15.5 9.52C15.55 9.91 15.43 10.3 15.17 10.59C14.95 10.85 14.63 11 14.22 11C13.55 11 13 10.41 13 9.69V5ZM8.49001 9.52L9.04001 5H11V9.69C11 10.41 10.45 11 9.71001 11C9.37001 11 9.06001 10.85 8.82001 10.59C8.57001 10.3 8.45001 9.91 8.49001 9.52ZM4.29001 10.53C4.03001 10.2 3.94001 9.77 4.04001 9.36L5.05001 5H7.02001L6.44001 9.86C6.36001 10.51 5.84001 11 5.23001 11C4.73001 11 4.43001 10.71 4.29001 10.53ZM19 19H5.00001V12.97C5.08001 12.98 5.15001 13 5.23001 13C6.10001 13 6.89001 12.64 7.47001 12.05C8.07001 12.65 8.87001 13 9.78001 13C10.65 13 11.43 12.64 12.01 12.07C12.6 12.64 13.4 13 14.3 13C15.14 13 15.94 12.65 16.54 12.05C17.12 12.64 17.91 13 18.78 13C18.86 13 18.93 12.98 19.01 12.97V19H19ZM19.71 10.53C19.57 10.71 19.27 11 18.77 11C18.16 11 17.63 10.51 17.56 9.86L16.98 5L18.91 4.99L19.96 9.36C20.06 9.78 19.97 10.21 19.71 10.53Z" fill="#FFC107"/>
</svg>
