<svg width="25" height="24" viewBox="0 0 25 24" fill="none" xmlns="http://www.w3.org/2000/svg">
<g clip-path="url(#clip0_25_3562)">
<path d="M20.1162 3.00458H5.11621C4.01621 3.00458 3.11621 3.90458 3.11621 5.00458V19.0046C3.11621 20.1046 4.01621 21.0046 5.11621 21.0046H20.1162C21.2162 21.0046 22.1162 20.1046 22.1162 19.0046V5.00458C22.1162 3.90458 21.2162 3.00458 20.1162 3.00458ZM20.1162 5.00458V8.00458H5.11621V5.00458H20.1162ZM15.1162 19.0046H10.1162V10.0046H15.1162V19.0046ZM5.11621 10.0046H8.11621V19.0046H5.11621V10.0046ZM17.1162 19.0046V10.0046H20.1162V19.0046H17.1162Z" fill="white"/>
</g>
<defs>
<clipPath id="clip0_25_3562">
<rect width="24" height="24" fill="white" transform="translate(0.116211 0.00457764)"/>
</clipPath>
</defs>
</svg>
